<svg width="256" height="256" viewBox="0 0 256 256" fill="none" xmlns="http://www.w3.org/2000/svg">
<g clip-path="url(#clip0_5190_11531)">
<path d="M17.4007 86.0008C6.18123 97.2202 -0.00439453 112.151 -0.00439453 128.02C-0.00439453 198.579 57.4153 255.999 127.974 255.999C174.43 255.999 215.213 231.086 237.652 193.929C225.707 201.395 211.629 205.703 196.571 205.703C153.74 205.703 118.888 170.851 118.888 128.02C118.888 93.0396 94.4437 68.5957 59.4629 68.5957C43.5936 68.5957 28.6628 74.7813 17.4433 86.0008H17.4007Z" fill="url(#paint0_linear_5190_11531)"/>
<path d="M255.963 127.978C255.963 57.4197 198.544 0 127.985 0C93.8145 0 61.6492 13.3098 37.504 37.4977C29.9959 45.0058 23.5116 53.2817 18.1792 62.1549C30.1239 54.6468 44.2868 50.2956 59.4309 50.2956C102.261 50.2956 137.114 85.1484 137.114 127.978C137.114 162.959 161.558 187.403 196.539 187.403C229.301 187.403 255.963 160.741 255.963 127.978Z" fill="url(#paint1_linear_5190_11531)"/>
</g>
<defs>
<linearGradient id="paint0_linear_5190_11531" x1="118.824" y1="68.5957" x2="118.824" y2="255.999" gradientUnits="userSpaceOnUse">
<stop offset="0.307692" stop-color="#FFCD44"/>
<stop offset="0.822115" stop-color="#FFB62E"/>
</linearGradient>
<linearGradient id="paint1_linear_5190_11531" x1="137.071" y1="0" x2="137.071" y2="187.403" gradientUnits="userSpaceOnUse">
<stop offset="0.0865385" stop-color="#F77A1A"/>
<stop offset="0.721154" stop-color="#F7911A"/>
</linearGradient>
<clipPath id="clip0_5190_11531">
<rect width="256" height="256" fill="white"/>
</clipPath>
</defs>
</svg>
