<svg width="377" height="72" viewBox="0 0 377 72" fill="none" xmlns="http://www.w3.org/2000/svg">
<g clip-path="url(#clip0_4170_8224)">
<path d="M110.19 42.7973C110.19 44.609 109.758 45.9767 108.882 46.9006C108.006 47.8244 106.831 48.2803 105.331 48.2803C103.831 48.2803 102.643 47.8244 101.768 46.9006C100.88 45.9767 100.448 44.621 100.448 42.8213V40.5057H92.769V42.7013C92.769 46.4807 93.8849 49.3842 96.1285 51.4358C98.3721 53.4755 101.444 54.4953 105.331 54.4953C109.218 54.4953 112.254 53.4755 114.473 51.4358C116.693 49.3962 117.797 46.4807 117.797 42.6773V16.4497H110.19V42.7973Z" fill="#2A2F30"/>
<path d="M143.413 42.1134C143.413 43.3611 143.185 44.417 142.717 45.3048C142.249 46.1807 141.613 46.8526 140.785 47.3205C139.957 47.7884 139.01 48.0164 137.942 48.0164C136.358 48.0164 135.122 47.5245 134.21 46.5286C133.299 45.5328 132.855 44.165 132.855 42.4253V25.8201H125.296V43.7331C125.296 45.9287 125.692 47.8244 126.496 49.4081C127.288 50.9919 128.427 52.2156 129.879 53.0555C131.343 53.9074 133.047 54.3273 134.99 54.3273C137.33 54.3273 139.25 53.6914 140.773 52.4076C142.045 51.3398 143.029 49.8761 143.749 48.0404L143.833 53.9674H150.96V25.8081H143.401V42.1014L143.413 42.1134Z" fill="#2A2F30"/>
<path d="M162.093 14.386C160.953 14.386 159.981 14.7579 159.165 15.5138C158.35 16.2697 157.954 17.1815 157.954 18.2613C157.954 19.3411 158.362 20.253 159.165 21.0089C159.969 21.7647 160.941 22.1367 162.093 22.1367C163.245 22.1367 164.217 21.7647 165.032 21.0089C165.848 20.253 166.256 19.3411 166.256 18.2613C166.256 17.1815 165.848 16.2457 165.032 15.5018C164.217 14.7579 163.245 14.386 162.093 14.386Z" fill="#2A2F30"/>
<path d="M165.872 25.8198H158.313V53.9791H165.872V25.8198Z" fill="#2A2F30"/>
<path d="M190.372 45.7128C190.048 46.3127 189.653 46.8286 189.185 47.2606C188.717 47.6925 188.177 48.0164 187.577 48.2444C186.977 48.4723 186.305 48.5803 185.585 48.5803C184.241 48.5803 183.114 48.2084 182.202 47.4765C181.29 46.7326 180.594 45.7248 180.138 44.441C179.67 43.1572 179.442 41.6695 179.442 39.9898C179.442 38.31 179.67 36.7983 180.138 35.5025C180.594 34.2067 181.29 33.1989 182.202 32.479C183.114 31.7592 184.241 31.3992 185.585 31.3992C186.305 31.3992 186.965 31.5072 187.565 31.7232C188.165 31.9391 188.681 32.2511 189.137 32.671C189.593 33.0789 189.976 33.5828 190.3 34.1587C190.624 34.7346 190.852 35.3945 191.008 36.1384L198.039 34.8306C197.775 33.3909 197.283 32.0831 196.575 30.9313C195.867 29.7795 194.968 28.7957 193.876 27.9798C192.784 27.1639 191.536 26.552 190.12 26.1201C188.705 25.6882 187.169 25.4602 185.513 25.4602C182.67 25.4602 180.222 26.0721 178.17 27.2839C176.119 28.4957 174.523 30.1994 173.407 32.3711C172.291 34.5427 171.728 37.0983 171.728 40.0138C171.728 42.9293 172.279 45.4368 173.407 47.6085C174.523 49.7801 176.107 51.4838 178.17 52.6956C180.222 53.9074 182.67 54.5193 185.513 54.5193C187.193 54.5193 188.741 54.3034 190.156 53.8594C191.572 53.4275 192.832 52.7796 193.924 51.9398C195.016 51.0999 195.915 50.0921 196.623 48.9283C197.331 47.7645 197.811 46.4327 198.087 44.9329L191.056 43.6491C190.924 44.405 190.696 45.0889 190.372 45.6888V45.7128Z" fill="#2A2F30"/>
<path d="M225.347 28.9996C224.135 27.8118 222.731 26.936 221.135 26.3361C219.54 25.7482 217.824 25.4602 215.976 25.4602C213.241 25.4602 210.853 26.0721 208.825 27.2959C206.798 28.5197 205.226 30.2234 204.11 32.407C203.006 34.5907 202.442 37.1343 202.442 40.0378C202.442 42.9413 203.006 45.5808 204.122 47.7405C205.238 49.9121 206.834 51.5798 208.921 52.7556C211.009 53.9314 213.481 54.5193 216.348 54.5193C218.544 54.5193 220.487 54.1954 222.179 53.5595C223.871 52.9236 225.275 52.0237 226.402 50.8479C227.53 49.6841 228.322 48.3284 228.766 46.7806L221.915 45.4968C221.651 46.2167 221.255 46.8286 220.739 47.3205C220.223 47.8124 219.612 48.1844 218.892 48.4363C218.172 48.6883 217.368 48.8083 216.468 48.8083C215.16 48.8083 214.008 48.5323 213.025 47.9804C212.041 47.4285 211.273 46.6006 210.733 45.4848C210.241 44.489 209.977 43.2532 209.929 41.8375H229.174V39.7258C229.174 37.3022 228.838 35.2026 228.154 33.4269C227.47 31.6512 226.534 30.1634 225.323 28.9756L225.347 28.9996ZM212.713 32.0591C213.625 31.4592 214.728 31.1473 216.024 31.1473C217.32 31.1473 218.424 31.4472 219.312 32.0471C220.187 32.647 220.859 33.4869 221.303 34.5667C221.615 35.3226 221.807 36.1864 221.903 37.1222H209.977C210.061 36.1744 210.277 35.2986 210.637 34.5187C211.105 33.4869 211.801 32.671 212.713 32.0591Z" fill="#2A2F30"/>
<path d="M266.883 35.9827C265.863 35.1068 264.663 34.363 263.307 33.7511C261.951 33.1392 260.476 32.6713 258.904 32.3113L255.508 31.4835C254.453 31.2315 253.469 30.9196 252.545 30.5356C251.633 30.1637 250.889 29.6598 250.325 29.0479C249.761 28.436 249.485 27.6681 249.485 26.7443C249.485 25.9044 249.725 25.1605 250.217 24.5006C250.709 23.8408 251.405 23.3368 252.329 22.9649C253.253 22.593 254.357 22.413 255.652 22.413C257.572 22.413 259.096 22.8209 260.248 23.6488C261.399 24.4766 262.035 25.6404 262.179 27.1522H269.606C269.57 24.9566 268.982 23.0129 267.818 21.3212C266.655 19.6294 265.047 18.3097 262.983 17.3618C260.92 16.414 258.496 15.9341 255.724 15.9341C252.953 15.9341 250.577 16.402 248.454 17.3498C246.33 18.2857 244.662 19.6055 243.438 21.3092C242.215 23.0009 241.615 24.9925 241.615 27.2602C241.615 29.9837 242.515 32.1673 244.314 33.8231C246.114 35.4788 248.598 36.6906 251.765 37.4584L255.892 38.4903C257.272 38.8142 258.436 39.1742 259.396 39.5941C260.356 40.014 261.087 40.5179 261.603 41.0938C262.119 41.6697 262.371 42.3896 262.371 43.2535C262.371 44.2133 262.083 45.0532 261.519 45.7731C260.944 46.4929 260.152 47.0568 259.144 47.4528C258.124 47.8487 256.936 48.0407 255.556 48.0407C254.177 48.0407 252.941 47.8367 251.849 47.4168C250.757 46.9968 249.881 46.361 249.233 45.5091C248.574 44.6572 248.202 43.6014 248.094 42.3416H240.607C240.679 44.9932 241.327 47.2248 242.575 49.0365C243.822 50.8482 245.55 52.216 247.782 53.1398C250.001 54.0637 252.617 54.5196 255.628 54.5196C258.64 54.5196 261.267 54.0517 263.439 53.1398C265.611 52.228 267.254 50.9082 268.406 49.2285C269.558 47.5488 270.122 45.5691 270.122 43.3015C270.122 41.7177 269.846 40.326 269.282 39.1142C268.718 37.9024 267.926 36.8585 266.907 35.9827H266.883Z" fill="#2A2F30"/>
<path d="M305.301 36.2221C304.869 38.1417 304.413 40.1934 303.957 42.377C303.645 43.8528 303.345 45.4365 303.069 47.1042C302.745 45.4245 302.409 43.8408 302.062 42.353C301.546 40.1574 301.066 38.1178 300.622 36.2221L298.126 25.8198H291.179L288.612 36.2221C288.156 38.1417 287.676 40.1934 287.148 42.389C286.8 43.8648 286.476 45.4245 286.164 47.0683C285.876 45.3765 285.564 43.7808 285.24 42.3051C284.748 40.1094 284.305 38.0818 283.885 36.2221L281.437 25.8198H273.506L281.821 53.9791H289.5L292.619 43.1209C292.919 42.0411 293.219 40.8413 293.531 39.5215C293.831 38.1897 294.131 36.846 294.431 35.4782C294.503 35.1543 294.575 34.8423 294.635 34.5304C294.707 34.8423 294.779 35.1543 294.839 35.4782C295.127 36.846 295.415 38.1897 295.715 39.5095C296.015 40.8293 296.314 42.0291 296.626 43.1209L299.746 53.9791H307.425L315.787 25.8198H307.749L305.301 36.2221Z" fill="#2A2F30"/>
<path d="M339.291 27.6798C338.164 26.924 336.88 26.3601 335.452 26.0001C334.024 25.6402 332.549 25.4602 331.013 25.4602C328.925 25.4602 327.053 25.7602 325.386 26.3721C323.718 26.972 322.314 27.8478 321.186 28.9876C320.059 30.1274 319.255 31.5192 318.763 33.1389L325.686 34.3027C325.902 33.7028 326.238 33.1509 326.694 32.671C327.149 32.1791 327.737 31.7951 328.457 31.4952C329.177 31.2072 330.029 31.0513 331.001 31.0513C331.973 31.0513 332.764 31.1952 333.424 31.4952C334.084 31.7951 334.576 32.2151 334.912 32.767C335.248 33.3189 335.416 34.0028 335.416 34.8066V34.9266C335.416 35.5265 335.188 35.9944 334.72 36.2944C334.252 36.6063 333.532 36.8343 332.525 36.9783C331.529 37.1222 330.209 37.2782 328.577 37.4462C327.185 37.5782 325.854 37.8181 324.582 38.1541C323.31 38.49 322.182 38.9819 321.186 39.6178C320.191 40.2537 319.399 41.1056 318.823 42.1614C318.247 43.2172 317.959 44.525 317.959 46.0967C317.959 47.9564 318.367 49.5162 319.183 50.764C319.999 52.0117 321.114 52.9596 322.53 53.5835C323.946 54.2074 325.554 54.5313 327.329 54.5313C328.721 54.5313 329.957 54.3393 331.025 53.9554C332.093 53.5715 333.004 53.0436 333.76 52.3837C334.516 51.7238 335.116 50.9559 335.572 50.0801H335.824V53.9794H342.975V35.0106C342.975 33.2949 342.639 31.8311 341.979 30.6313C341.319 29.4196 340.419 28.4357 339.279 27.6798H339.291ZM335.476 43.9011C335.476 44.8969 335.224 45.7848 334.72 46.6007C334.216 47.4165 333.52 48.0404 332.621 48.5203C331.721 48.9882 330.677 49.2282 329.489 49.2282C328.649 49.2282 327.917 49.1082 327.281 48.8563C326.646 48.6043 326.154 48.2324 325.782 47.7405C325.41 47.2485 325.23 46.6366 325.23 45.9168C325.23 45.1489 325.422 44.513 325.806 44.0091C326.19 43.5172 326.741 43.1092 327.437 42.8093C328.133 42.5093 328.961 42.2934 329.885 42.1494C330.305 42.1014 330.785 42.0294 331.325 41.9454C331.865 41.8615 332.405 41.7655 332.968 41.6695C333.532 41.5735 334.024 41.4535 334.48 41.3215C334.936 41.1896 335.272 41.0336 335.488 40.8656V43.9131L335.476 43.9011Z" fill="#2A2F30"/>
<path d="M374.601 31.9151C373.57 29.7674 372.19 28.1477 370.462 27.0799C368.734 26.0001 366.827 25.4722 364.739 25.4722C363.143 25.4722 361.812 25.7361 360.756 26.276C359.7 26.8159 358.848 27.4758 358.2 28.2677C357.552 29.0596 357.048 29.8154 356.7 30.5593H356.353V25.8201H348.926V64.5136H356.484V49.4801H356.712C357.06 50.236 357.576 50.9919 358.236 51.7597C358.896 52.5276 359.76 53.1635 360.816 53.6914C361.872 54.2193 363.167 54.4713 364.691 54.4713C366.863 54.4713 368.806 53.9074 370.534 52.7916C372.262 51.6757 373.63 50.032 374.637 47.8844C375.645 45.7247 376.149 43.0852 376.149 39.9657C376.149 36.8463 375.633 34.0747 374.601 31.9271V31.9151ZM367.727 44.309C367.271 45.5808 366.587 46.5886 365.687 47.3085C364.787 48.0284 363.683 48.3883 362.376 48.3883C361.068 48.3883 360.012 48.0404 359.1 47.3325C358.188 46.6246 357.504 45.6408 357.024 44.369C356.544 43.0972 356.305 41.6214 356.305 39.9177C356.305 38.214 356.544 36.7263 357.012 35.4665C357.48 34.2187 358.176 33.2469 359.076 32.539C359.988 31.8431 361.08 31.4951 362.376 31.4951C363.671 31.4951 364.811 31.8551 365.699 32.575C366.587 33.2948 367.271 34.2907 367.727 35.5505C368.183 36.8103 368.423 38.262 368.423 39.9057C368.423 41.5495 368.195 43.0132 367.727 44.285V44.309Z" fill="#2A2F30"/>
<path d="M4.8942 24.1877C1.73873 27.3431 -0.000976562 31.5424 -0.000976562 36.0057C-0.000976562 55.8503 16.1483 71.9996 35.993 71.9996C49.0588 71.9996 60.5288 64.9928 66.8398 54.5426C63.4803 56.6422 59.521 57.854 55.2857 57.854C43.2397 57.854 33.4374 48.0516 33.4374 36.0057C33.4374 26.1673 26.5625 19.2925 16.7242 19.2925C12.261 19.2925 8.06167 21.0322 4.9062 24.1877H4.8942Z" fill="url(#paint0_linear_4170_8224)"/>
<path d="M71.9895 35.9939C71.9895 16.1493 55.8403 0 35.9956 0C26.3852 0 17.3387 3.74338 10.5479 10.5462C8.43623 12.6579 6.61254 14.9855 5.11279 17.4811C8.47223 15.3694 12.4556 14.1456 16.7148 14.1456C28.7608 14.1456 38.5632 23.948 38.5632 35.9939C38.5632 45.8323 45.438 52.7071 55.2763 52.7071C64.4908 52.7071 71.9895 45.2084 71.9895 35.9939Z" fill="url(#paint1_linear_4170_8224)"/>
</g>
<defs>
<linearGradient id="paint0_linear_4170_8224" x1="33.4194" y1="19.2925" x2="33.4194" y2="71.9996" gradientUnits="userSpaceOnUse">
<stop offset="0.307692" stop-color="#FFCD44"/>
<stop offset="0.822115" stop-color="#FFB62E"/>
</linearGradient>
<linearGradient id="paint1_linear_4170_8224" x1="38.5512" y1="0" x2="38.5512" y2="52.7071" gradientUnits="userSpaceOnUse">
<stop offset="0.0865385" stop-color="#F77A1A"/>
<stop offset="0.721154" stop-color="#F7911A"/>
</linearGradient>
<clipPath id="clip0_4170_8224">
<rect width="376.8" height="72" fill="white"/>
</clipPath>
</defs>
</svg>
