<svg width="524" height="101" viewBox="0 0 524 101" fill="none" xmlns="http://www.w3.org/2000/svg">
<g clip-path="url(#clip0_5758_16609)">
<path d="M153.376 59.94C153.376 62.4563 152.776 64.356 151.559 65.6391C150.343 66.9222 148.71 67.5554 146.627 67.5554C144.544 67.5554 142.894 66.9222 141.678 65.6391C140.444 64.356 139.845 62.4729 139.845 59.9734V56.7572H129.18V59.8067C129.18 65.0558 130.729 69.0885 133.846 71.938C136.962 74.7709 141.228 76.1873 146.627 76.1873C152.026 76.1873 156.242 74.7709 159.325 71.938C162.407 69.1052 163.941 65.0558 163.941 59.7734V23.3462H153.376V59.94Z" fill="white"/>
<path d="M199.518 58.9904C199.518 60.7235 199.201 62.1899 198.551 63.423C197.902 64.6395 197.018 65.5726 195.869 66.2225C194.719 66.8724 193.402 67.189 191.919 67.189C189.72 67.189 188.003 66.5058 186.737 65.1227C185.47 63.7396 184.854 61.8399 184.854 59.4237V36.3609H174.355V61.2401C174.355 64.2895 174.905 66.9224 176.022 69.1221C177.122 71.3217 178.705 73.0214 180.721 74.1879C182.754 75.371 185.12 75.9542 187.82 75.9542C191.069 75.9542 193.736 75.071 195.852 73.288C197.618 71.8049 198.985 69.7719 199.984 67.2224L200.101 75.4543H209.999V36.3442H199.501V58.9738L199.518 58.9904Z" fill="white"/>
<path d="M225.462 20.4805C223.879 20.4805 222.529 20.9971 221.396 22.0469C220.263 23.0967 219.713 24.3631 219.713 25.8629C219.713 27.3626 220.279 28.6291 221.396 29.6789C222.512 30.7288 223.862 31.2453 225.462 31.2453C227.062 31.2453 228.411 30.7288 229.545 29.6789C230.678 28.6291 231.244 27.3626 231.244 25.8629C231.244 24.3631 230.678 23.0634 229.545 22.0302C228.411 20.9971 227.062 20.4805 225.462 20.4805Z" fill="white"/>
<path d="M230.711 36.3608H220.213V75.4709H230.711V36.3608Z" fill="white"/>
<path d="M264.739 63.9895C264.289 64.8226 263.74 65.5392 263.09 66.1391C262.44 66.739 261.69 67.1889 260.857 67.5055C260.024 67.8221 259.09 67.9721 258.091 67.9721C256.224 67.9721 254.658 67.4555 253.391 66.439C252.125 65.4059 251.158 64.0061 250.525 62.2231C249.875 60.4401 249.559 58.3737 249.559 56.0408C249.559 53.7078 249.875 51.6082 250.525 49.8085C251.158 48.0088 252.125 46.609 253.391 45.6092C254.658 44.6094 256.224 44.1095 258.091 44.1095C259.09 44.1095 260.007 44.2594 260.84 44.5594C261.673 44.8593 262.39 45.2926 263.023 45.8758C263.656 46.4424 264.189 47.1423 264.639 47.9421C265.089 48.742 265.406 49.6585 265.623 50.6917L275.388 48.8753C275.021 46.8757 274.338 45.0593 273.355 43.4596C272.371 41.8599 271.122 40.4934 269.605 39.3603C268.089 38.2271 266.356 37.3773 264.389 36.7774C262.423 36.1775 260.29 35.8608 257.991 35.8608C254.041 35.8608 250.642 36.7107 247.792 38.3938C244.943 40.0768 242.726 42.4431 241.177 45.4592C239.627 48.4754 238.844 52.0248 238.844 56.0741C238.844 60.1234 239.61 63.6062 241.177 66.6223C242.726 69.6385 244.926 72.0048 247.792 73.6878C250.642 75.3709 254.041 76.2207 257.991 76.2207C260.323 76.2207 262.473 75.9208 264.439 75.3042C266.406 74.7043 268.155 73.8045 269.672 72.638C271.188 71.4715 272.438 70.0718 273.421 68.4554C274.404 66.839 275.071 64.9893 275.454 62.9063L265.689 61.1233C265.506 62.1731 265.189 63.1229 264.739 63.9561V63.9895Z" fill="white"/>
<path d="M313.315 40.7772C311.632 39.1275 309.683 37.911 307.466 37.0778C305.25 36.2613 302.867 35.8613 300.301 35.8613C296.501 35.8613 293.185 36.7112 290.369 38.4109C287.553 40.1106 285.37 42.4769 283.82 45.5097C282.287 48.5425 281.504 52.0753 281.504 56.1079C281.504 60.1406 282.287 63.8066 283.837 66.8061C285.387 69.8223 287.603 72.1386 290.502 73.7716C293.402 75.4047 296.835 76.2212 300.817 76.2212C303.867 76.2212 306.566 75.7713 308.916 74.8881C311.266 74.0049 313.215 72.7551 314.782 71.1221C316.348 69.5057 317.448 67.6227 318.064 65.473L308.549 63.69C308.183 64.6898 307.633 65.5397 306.916 66.2229C306.2 66.9061 305.35 67.4227 304.35 67.7726C303.35 68.1226 302.234 68.2892 300.984 68.2892C299.168 68.2892 297.568 67.9059 296.201 67.1394C294.835 66.3729 293.769 65.2231 293.019 63.6733C292.335 62.2902 291.969 60.5738 291.902 58.6075H318.631V55.6747C318.631 52.3086 318.164 49.3924 317.215 46.9261C316.265 44.4599 314.965 42.3936 313.282 40.7439L313.315 40.7772ZM295.768 45.0265C297.035 44.1933 298.568 43.76 300.367 43.76C302.167 43.76 303.7 44.1766 304.933 45.0098C306.15 45.843 307.083 47.0095 307.699 48.5092C308.133 49.559 308.399 50.7588 308.533 52.0586H291.969C292.085 50.7422 292.385 49.5257 292.885 48.4425C293.535 47.0095 294.502 45.8763 295.768 45.0265Z" fill="white"/>
<path d="M371.004 50.4757C369.587 49.2592 367.921 48.2261 366.038 47.3762C364.155 46.5263 362.105 45.8765 359.922 45.3765L355.206 44.2267C353.74 43.8768 352.373 43.4435 351.09 42.9103C349.824 42.3937 348.791 41.6938 348.007 40.844C347.224 39.9941 346.841 38.9276 346.841 37.6445C346.841 36.478 347.174 35.4449 347.858 34.5284C348.541 33.6119 349.507 32.912 350.79 32.3954C352.073 31.8788 353.607 31.6288 355.406 31.6288C358.072 31.6288 360.189 32.1954 361.788 33.3452C363.388 34.495 364.271 36.1114 364.471 38.2111H374.786C374.736 35.1616 373.92 32.462 372.303 30.1124C370.687 27.7628 368.454 25.9298 365.588 24.6133C362.722 23.2969 359.356 22.6304 355.506 22.6304C351.657 22.6304 348.357 23.2802 345.408 24.5967C342.458 25.8965 340.142 27.7295 338.442 30.0958C336.743 32.4454 335.91 35.2116 335.91 38.361C335.91 42.1437 337.159 45.1766 339.659 47.4762C342.158 49.7758 345.608 51.4588 350.007 52.5253L355.74 53.9584C357.656 54.4083 359.272 54.9083 360.605 55.4915C361.938 56.0747 362.955 56.7746 363.672 57.5745C364.388 58.3743 364.738 59.3742 364.738 60.574C364.738 61.9071 364.338 63.0736 363.555 64.0734C362.755 65.0732 361.655 65.8564 360.255 66.4063C358.839 66.9562 357.189 67.2229 355.273 67.2229C353.357 67.2229 351.64 66.9396 350.124 66.3563C348.607 65.7731 347.391 64.8899 346.491 63.7068C345.575 62.5237 345.058 61.0572 344.908 59.3075H334.51C334.61 62.9902 335.51 66.0897 337.243 68.606C338.976 71.1222 341.375 73.0219 344.475 74.305C347.558 75.5881 351.19 76.2213 355.373 76.2213C359.556 76.2213 363.205 75.5715 366.221 74.305C369.237 73.0386 371.52 71.2055 373.12 68.8726C374.72 66.5397 375.503 63.7901 375.503 60.6406C375.503 58.441 375.12 56.508 374.336 54.8249C373.553 53.1419 372.453 51.6921 371.037 50.4757H371.004Z" fill="white"/>
<path d="M424.362 50.8084C423.762 53.4746 423.129 56.3242 422.496 59.357C422.063 61.4066 421.646 63.6063 421.263 65.9225C420.813 63.5896 420.346 61.39 419.863 59.3236C419.147 56.2742 418.48 53.4413 417.863 50.8084L414.397 36.3608H404.749L401.183 50.8084C400.55 53.4746 399.883 56.3241 399.15 59.3736C398.667 61.4233 398.217 63.5896 397.784 65.8725C397.384 63.5229 396.95 61.3067 396.5 59.257C395.817 56.2075 395.201 53.3913 394.617 50.8084L391.218 36.3608H380.203L391.751 75.4709H402.416L406.749 60.3901C407.165 58.8904 407.582 57.224 408.015 55.391C408.432 53.5413 408.848 51.6749 409.265 49.7753C409.365 49.3253 409.465 48.8921 409.548 48.4588C409.648 48.8921 409.748 49.3253 409.831 49.7753C410.231 51.6749 410.631 53.5413 411.048 55.3743C411.465 57.2073 411.881 58.8737 412.314 60.3901L416.647 75.4709H427.312L438.927 36.3608H427.762L424.362 50.8084Z" fill="white"/>
<path d="M471.572 38.9437C470.005 37.8938 468.222 37.1106 466.239 36.6107C464.256 36.1108 462.207 35.8608 460.074 35.8608C457.174 35.8608 454.575 36.2775 452.258 37.1273C449.942 37.9605 447.992 39.177 446.426 40.76C444.86 42.3431 443.743 44.2761 443.06 46.5257L452.675 48.1421C452.975 47.3089 453.441 46.5424 454.075 45.8758C454.708 45.1926 455.524 44.6594 456.524 44.2428C457.524 43.8428 458.707 43.6262 460.057 43.6262C461.407 43.6262 462.507 43.8262 463.423 44.2428C464.34 44.6594 465.023 45.2426 465.489 46.0091C465.956 46.7757 466.189 47.7255 466.189 48.842V49.0086C466.189 49.8418 465.873 50.4917 465.223 50.9083C464.573 51.3416 463.573 51.6582 462.173 51.8582C460.79 52.0581 458.957 52.2748 456.691 52.508C454.758 52.6913 452.908 53.0246 451.142 53.4912C449.375 53.9578 447.809 54.641 446.426 55.5242C445.043 56.4074 443.943 57.5905 443.143 59.057C442.343 60.5234 441.943 62.3397 441.943 64.5227C441.943 67.1056 442.51 69.2719 443.643 71.0049C444.776 72.738 446.326 74.0544 448.292 74.9209C450.259 75.7875 452.492 76.2374 454.958 76.2374C456.891 76.2374 458.607 75.9708 460.09 75.4375C461.573 74.9043 462.84 74.1711 463.89 73.2545C464.939 72.338 465.773 71.2715 466.406 70.0551H466.756V75.4708H476.687V49.1253C476.687 46.7424 476.221 44.7094 475.304 43.043C474.388 41.3599 473.138 39.9935 471.555 38.9437H471.572ZM466.273 61.4732C466.273 62.8563 465.923 64.0894 465.223 65.2226C464.523 66.3557 463.556 67.2222 462.307 67.8888C461.057 68.5387 459.607 68.872 457.957 68.872C456.791 68.872 455.774 68.7053 454.891 68.3554C454.008 68.0054 453.325 67.4889 452.808 66.8056C452.292 66.1224 452.042 65.2726 452.042 64.2727C452.042 63.2062 452.308 62.3231 452.841 61.6232C453.375 60.94 454.141 60.3734 455.108 59.9568C456.074 59.5402 457.224 59.2402 458.507 59.0403C459.09 58.9736 459.757 58.8736 460.507 58.757C461.257 58.6403 462.007 58.507 462.79 58.3737C463.573 58.2404 464.256 58.0738 464.889 57.8905C465.523 57.7072 465.989 57.4905 466.289 57.2573V61.4899L466.273 61.4732Z" fill="white"/>
<path d="M520.614 44.8264C519.181 41.8436 517.264 39.594 514.865 38.1109C512.465 36.6111 509.816 35.8779 506.916 35.8779C504.7 35.8779 502.85 36.2445 501.384 36.9944C499.917 37.7443 498.734 38.6608 497.834 39.7606C496.934 40.8604 496.235 41.9102 495.751 42.9434H495.268V36.3612H484.953V90.1021H495.451V69.2223H495.768C496.251 70.2721 496.968 71.322 497.884 72.3885C498.801 73.4549 500.001 74.3381 501.467 75.0713C502.933 75.8045 504.733 76.1545 506.849 76.1545C509.866 76.1545 512.565 75.3713 514.965 73.8215C517.364 72.2718 519.264 69.9888 520.664 67.006C522.064 64.0065 522.763 60.3405 522.763 56.0079C522.763 51.6753 522.047 47.8259 520.614 44.8431V44.8264ZM511.065 62.0402C510.432 63.8066 509.482 65.2063 508.233 66.2062C506.983 67.206 505.45 67.7059 503.633 67.7059C501.817 67.7059 500.351 67.2227 499.084 66.2395C497.818 65.2563 496.868 63.8899 496.201 62.1235C495.535 60.3571 495.201 58.3075 495.201 55.9412C495.201 53.5749 495.535 51.5086 496.185 49.7589C496.834 48.0259 497.801 46.6761 499.051 45.6929C500.317 44.7264 501.834 44.2432 503.633 44.2432C505.433 44.2432 507.016 44.7431 508.249 45.7429C509.482 46.7428 510.432 48.1259 511.065 49.8756C511.699 51.6253 512.032 53.6416 512.032 55.9246C512.032 58.2075 511.715 60.2405 511.065 62.0068V62.0402Z" fill="white"/>
<path d="M7.13284 34.0943C2.75024 38.4769 0.333984 44.3092 0.333984 50.5082C0.333984 78.0702 22.7635 100.5 50.3256 100.5C68.4725 100.5 84.4032 90.7681 93.1684 76.2538C88.5025 79.17 83.0034 80.8531 77.1211 80.8531C60.3905 80.8531 46.7762 67.2387 46.7762 50.5082C46.7762 36.8438 37.2278 27.2954 23.5634 27.2954C17.3645 27.2954 11.5321 29.7117 7.1495 34.0943H7.13284Z" fill="white"/>
<path d="M100.318 50.4911C100.318 22.9291 77.8884 0.499512 50.3264 0.499512C36.9786 0.499512 24.4141 5.69865 14.9823 15.1471C12.0495 18.0799 9.51658 21.3127 7.43359 24.7788C12.0995 21.8459 17.6319 20.1462 23.5476 20.1462C40.2781 20.1462 53.8924 33.7606 53.8924 50.4911C53.8924 64.1555 63.4408 73.7039 77.1052 73.7039C89.9031 73.7039 100.318 63.2889 100.318 50.4911Z" fill="white"/>
</g>
<defs>
<clipPath id="clip0_5758_16609">
<rect width="523.333" height="100" fill="white" transform="translate(0.333984 0.5)"/>
</clipPath>
</defs>
</svg>
