<svg width="377" height="72" viewBox="0 0 377 72" fill="none" xmlns="http://www.w3.org/2000/svg">
<g clip-path="url(#clip0_4170_8251)">
<path d="M110.19 42.7968C110.19 44.6085 109.758 45.9763 108.882 46.9001C108.006 47.8239 106.83 48.2799 105.33 48.2799C103.831 48.2799 102.643 47.8239 101.767 46.9001C100.879 45.9763 100.447 44.6205 100.447 42.8208V40.5052H92.7686V42.7008C92.7686 46.4802 93.8844 49.3837 96.128 51.4353C98.3716 53.475 101.443 54.4948 105.33 54.4948C109.218 54.4948 112.253 53.475 114.473 51.4353C116.693 49.3957 117.796 46.4802 117.796 42.6768V16.4492H110.19V42.7968Z" fill="white"/>
<path d="M143.413 42.1131C143.413 43.3609 143.185 44.4167 142.717 45.3046C142.249 46.1804 141.613 46.8523 140.785 47.3202C139.957 47.7882 139.01 48.0161 137.942 48.0161C136.358 48.0161 135.122 47.5242 134.21 46.5284C133.299 45.5325 132.855 44.1648 132.855 42.4251V25.8199H125.296V43.7328C125.296 45.9285 125.692 47.8242 126.496 49.4079C127.288 50.9916 128.427 52.2154 129.879 53.0553C131.343 53.9071 133.047 54.3271 134.99 54.3271C137.33 54.3271 139.25 53.6912 140.773 52.4074C142.045 51.3396 143.029 49.8758 143.749 48.0401L143.833 53.9671H150.96V25.8079H143.401V42.1011L143.413 42.1131Z" fill="white"/>
<path d="M162.093 14.3857C160.954 14.3857 159.982 14.7577 159.166 15.5136C158.35 16.2694 157.954 17.1813 157.954 18.2611C157.954 19.3409 158.362 20.2528 159.166 21.0086C159.97 21.7645 160.942 22.1364 162.093 22.1364C163.245 22.1364 164.217 21.7645 165.033 21.0086C165.849 20.2528 166.257 19.3409 166.257 18.2611C166.257 17.1813 165.849 16.2454 165.033 15.5016C164.217 14.7577 163.245 14.3857 162.093 14.3857Z" fill="white"/>
<path d="M165.873 25.8196H158.314V53.9788H165.873V25.8196Z" fill="white"/>
<path d="M190.373 45.7126C190.049 46.3125 189.654 46.8284 189.186 47.2603C188.718 47.6922 188.178 48.0162 187.578 48.2441C186.978 48.4721 186.306 48.5801 185.586 48.5801C184.242 48.5801 183.115 48.2081 182.203 47.4763C181.291 46.7324 180.595 45.7246 180.139 44.4408C179.671 43.157 179.443 41.6692 179.443 39.9895C179.443 38.3098 179.671 36.7981 180.139 35.5023C180.595 34.2065 181.291 33.1987 182.203 32.4788C183.115 31.7589 184.242 31.399 185.586 31.399C186.306 31.399 186.966 31.5069 187.566 31.7229C188.166 31.9389 188.682 32.2508 189.138 32.6708C189.594 33.0787 189.977 33.5826 190.301 34.1585C190.625 34.7344 190.853 35.3943 191.009 36.1382L198.04 34.8304C197.776 33.3906 197.284 32.0829 196.576 30.9311C195.868 29.7792 194.969 28.7954 193.877 27.9795C192.785 27.1637 191.537 26.5518 190.121 26.1199C188.706 25.6879 187.17 25.46 185.514 25.46C182.671 25.46 180.223 26.0719 178.171 27.2837C176.12 28.4955 174.524 30.1992 173.408 32.3708C172.292 34.5424 171.729 37.098 171.729 40.0135C171.729 42.929 172.28 45.4366 173.408 47.6082C174.524 49.7799 176.108 51.4836 178.171 52.6954C180.223 53.9072 182.671 54.5191 185.514 54.5191C187.194 54.5191 188.742 54.3031 190.157 53.8592C191.573 53.4273 192.833 52.7794 193.925 51.9395C195.017 51.0997 195.916 50.0918 196.624 48.928C197.332 47.7642 197.812 46.4324 198.088 44.9327L191.057 43.6489C190.925 44.4048 190.697 45.0887 190.373 45.6886V45.7126Z" fill="white"/>
<path d="M225.347 28.9994C224.135 27.8116 222.731 26.9357 221.135 26.3358C219.54 25.7479 217.824 25.46 215.976 25.46C213.241 25.46 210.853 26.0719 208.825 27.2957C206.798 28.5194 205.226 30.2232 204.11 32.4068C203.006 34.5904 202.442 37.134 202.442 40.0375C202.442 42.941 203.006 45.5806 204.122 47.7402C205.238 49.9119 206.834 51.5796 208.921 52.7554C211.009 53.9312 213.481 54.5191 216.348 54.5191C218.544 54.5191 220.487 54.1951 222.179 53.5592C223.871 52.9234 225.275 52.0235 226.402 50.8477C227.53 49.6839 228.322 48.3281 228.766 46.7804L221.915 45.4966C221.651 46.2165 221.255 46.8284 220.739 47.3203C220.223 47.8122 219.612 48.1841 218.892 48.4361C218.172 48.6881 217.368 48.808 216.468 48.808C215.16 48.808 214.008 48.5321 213.025 47.9802C212.041 47.4283 211.273 46.6004 210.733 45.4846C210.241 44.4888 209.977 43.253 209.929 41.8372H229.174V39.7256C229.174 37.302 228.838 35.2023 228.154 33.4266C227.47 31.6509 226.534 30.1632 225.323 28.9754L225.347 28.9994ZM212.713 32.0588C213.625 31.459 214.728 31.147 216.024 31.147C217.32 31.147 218.424 31.447 219.312 32.0469C220.187 32.6468 220.859 33.4866 221.303 34.5664C221.615 35.3223 221.807 36.1862 221.903 37.122H209.977C210.061 36.1742 210.277 35.2983 210.637 34.5184C211.105 33.4866 211.801 32.6707 212.713 32.0588Z" fill="white"/>
<path d="M266.883 35.9822C265.863 35.1064 264.663 34.3625 263.308 33.7506C261.952 33.1387 260.476 32.6708 258.904 32.3108L255.509 31.483C254.453 31.231 253.469 30.9191 252.545 30.5351C251.634 30.1632 250.89 29.6593 250.326 29.0474C249.762 28.4355 249.486 27.6676 249.486 26.7438C249.486 25.9039 249.726 25.16 250.218 24.5002C250.71 23.8403 251.406 23.3363 252.329 22.9644C253.253 22.5925 254.357 22.4125 255.653 22.4125C257.573 22.4125 259.096 22.8204 260.248 23.6483C261.4 24.4761 262.036 25.6399 262.18 27.1517H269.607C269.571 24.9561 268.983 23.0124 267.819 21.3207C266.655 19.629 265.047 18.3092 262.984 17.3613C260.92 16.4135 258.496 15.9336 255.725 15.9336C252.953 15.9336 250.578 16.4015 248.454 17.3493C246.33 18.2852 244.663 19.605 243.439 21.3087C242.215 23.0004 241.615 24.9921 241.615 27.2597C241.615 29.9832 242.515 32.1668 244.315 33.8226C246.114 35.4783 248.598 36.6901 251.766 37.458L255.893 38.4898C257.273 38.8137 258.436 39.1737 259.396 39.5936C260.356 40.0135 261.088 40.5174 261.604 41.0933C262.12 41.6692 262.372 42.3891 262.372 43.253C262.372 44.2128 262.084 45.0527 261.52 45.7726C260.944 46.4924 260.152 47.0563 259.144 47.4523C258.124 47.8482 256.937 48.0402 255.557 48.0402C254.177 48.0402 252.941 47.8362 251.85 47.4163C250.758 46.9964 249.882 46.3605 249.234 45.5086C248.574 44.6568 248.202 43.6009 248.094 42.3411H240.607C240.679 44.9927 241.327 47.2243 242.575 49.036C243.823 50.8477 245.551 52.2155 247.782 53.1393C250.002 54.0632 252.617 54.5191 255.629 54.5191C258.64 54.5191 261.268 54.0512 263.44 53.1393C265.611 52.2275 267.255 50.9077 268.407 49.228C269.559 47.5483 270.122 45.5686 270.122 43.301C270.122 41.7172 269.846 40.3255 269.283 39.1137C268.719 37.9019 267.927 36.8581 266.907 35.9822H266.883Z" fill="white"/>
<path d="M305.301 36.2218C304.869 38.1415 304.413 40.1932 303.957 42.3768C303.645 43.8525 303.345 45.4363 303.069 47.104C302.745 45.4243 302.409 43.8405 302.062 42.3528C301.546 40.1572 301.066 38.1175 300.622 36.2218L298.126 25.8196H291.179L288.612 36.2218C288.156 38.1415 287.676 40.1932 287.148 42.3888C286.8 43.8645 286.476 45.4243 286.164 47.068C285.876 45.3763 285.564 43.7806 285.24 42.3048C284.748 40.1092 284.305 38.0815 283.885 36.2218L281.437 25.8196H273.506L281.821 53.9788H289.5L292.619 43.1207C292.919 42.0408 293.219 40.8411 293.531 39.5213C293.831 38.1895 294.131 36.8457 294.431 35.478C294.503 35.154 294.575 34.8421 294.635 34.5301C294.707 34.8421 294.779 35.154 294.839 35.478C295.127 36.8457 295.415 38.1895 295.715 39.5093C296.015 40.8291 296.314 42.0289 296.626 43.1207L299.746 53.9788H307.425L315.787 25.8196H307.749L305.301 36.2218Z" fill="white"/>
<path d="M339.292 27.6796C338.164 26.9237 336.88 26.3598 335.453 25.9999C334.025 25.6399 332.549 25.46 331.013 25.46C328.926 25.46 327.054 25.7599 325.386 26.3718C323.719 26.9717 322.315 27.8476 321.187 28.9874C320.059 30.1272 319.255 31.519 318.763 33.1387L325.686 34.3025C325.902 33.7026 326.238 33.1507 326.694 32.6708C327.15 32.1788 327.738 31.7949 328.458 31.4949C329.178 31.207 330.029 31.051 331.001 31.051C331.973 31.051 332.765 31.195 333.425 31.4949C334.085 31.7949 334.577 32.2148 334.913 32.7667C335.249 33.3187 335.417 34.0025 335.417 34.8064V34.9264C335.417 35.5263 335.189 35.9942 334.721 36.2941C334.253 36.6061 333.533 36.8341 332.525 36.978C331.529 37.122 330.209 37.278 328.578 37.4459C327.186 37.5779 325.854 37.8179 324.582 38.1538C323.311 38.4898 322.183 38.9817 321.187 39.6176C320.191 40.2535 319.399 41.1053 318.823 42.1612C318.247 43.217 317.959 44.5248 317.959 46.0965C317.959 47.9562 318.367 49.5159 319.183 50.7637C319.999 52.0115 321.115 52.9593 322.531 53.5832C323.946 54.2071 325.554 54.5311 327.33 54.5311C328.722 54.5311 329.957 54.3391 331.025 53.9552C332.093 53.5712 333.005 53.0433 333.761 52.3834C334.517 51.7235 335.117 50.9557 335.573 50.0798H335.824V53.9792H342.975V35.0104C342.975 33.2946 342.639 31.8309 341.979 30.6311C341.32 29.4193 340.42 28.4355 339.28 27.6796H339.292ZM335.477 43.9009C335.477 44.8967 335.225 45.7846 334.721 46.6004C334.217 47.4163 333.521 48.0402 332.621 48.5201C331.721 48.988 330.677 49.228 329.49 49.228C328.65 49.228 327.918 49.108 327.282 48.856C326.646 48.6041 326.154 48.2321 325.782 47.7402C325.41 47.2483 325.23 46.6364 325.23 45.9165C325.23 45.1486 325.422 44.5128 325.806 44.0088C326.19 43.5169 326.742 43.109 327.438 42.809C328.134 42.5091 328.962 42.2931 329.885 42.1492C330.305 42.1012 330.785 42.0292 331.325 41.9452C331.865 41.8612 332.405 41.7652 332.969 41.6692C333.533 41.5733 334.025 41.4533 334.481 41.3213C334.937 41.1893 335.273 41.0334 335.489 40.8654V43.9129L335.477 43.9009Z" fill="white"/>
<path d="M374.601 31.9148C373.57 29.7672 372.19 28.1475 370.462 27.0796C368.734 25.9998 366.827 25.4719 364.739 25.4719C363.143 25.4719 361.812 25.7359 360.756 26.2758C359.7 26.8157 358.848 27.4756 358.2 28.2675C357.552 29.0593 357.048 29.8152 356.7 30.5591H356.353V25.8199H348.926V64.5133H356.484V49.4799H356.712C357.06 50.2357 357.576 50.9916 358.236 51.7595C358.896 52.5274 359.76 53.1632 360.816 53.6912C361.872 54.2191 363.167 54.471 364.691 54.471C366.863 54.471 368.806 53.9071 370.534 52.7913C372.262 51.6755 373.63 50.0318 374.637 47.8841C375.645 45.7245 376.149 43.085 376.149 39.9655C376.149 36.846 375.633 34.0745 374.601 31.9268V31.9148ZM367.727 44.3087C367.271 45.5805 366.587 46.5884 365.687 47.3082C364.787 48.0281 363.683 48.3881 362.376 48.3881C361.068 48.3881 360.012 48.0401 359.1 47.3322C358.188 46.6244 357.504 45.6405 357.024 44.3687C356.544 43.097 356.305 41.6212 356.305 39.9175C356.305 38.2138 356.544 36.726 357.012 35.4662C357.48 34.2185 358.176 33.2466 359.076 32.5387C359.988 31.8428 361.08 31.4949 362.376 31.4949C363.671 31.4949 364.811 31.8548 365.699 32.5747C366.587 33.2946 367.271 34.2904 367.727 35.5502C368.183 36.81 368.423 38.2618 368.423 39.9055C368.423 41.5492 368.195 43.013 367.727 44.2847V44.3087Z" fill="white"/>
<path d="M4.89469 24.1877C1.73922 27.3431 -0.000488281 31.5424 -0.000488281 36.0057C-0.000488281 55.8503 16.1488 71.9996 35.9934 71.9996C49.0592 71.9996 60.5293 64.9928 66.8402 54.5426C63.4808 56.6422 59.5215 57.854 55.2862 57.854C43.2402 57.854 33.4379 48.0516 33.4379 36.0057C33.4379 26.1673 26.563 19.2925 16.7247 19.2925C12.2614 19.2925 8.06215 21.0322 4.90669 24.1877H4.89469Z" fill="url(#paint0_linear_4170_8251)"/>
<path d="M71.99 35.9939C71.99 16.1493 55.8407 0 35.9961 0C26.3857 0 17.3392 3.74338 10.5484 10.5462C8.43672 12.6579 6.61303 14.9855 5.11328 17.4811C8.47272 15.3694 12.456 14.1456 16.7153 14.1456C28.7613 14.1456 38.5637 23.948 38.5637 35.9939C38.5637 45.8323 45.4385 52.7071 55.2768 52.7071C64.4913 52.7071 71.99 45.2084 71.99 35.9939Z" fill="url(#paint1_linear_4170_8251)"/>
</g>
<defs>
<linearGradient id="paint0_linear_4170_8251" x1="33.4199" y1="19.2925" x2="33.4199" y2="71.9996" gradientUnits="userSpaceOnUse">
<stop offset="0.307692" stop-color="#FFCD44"/>
<stop offset="0.822115" stop-color="#FFB62E"/>
</linearGradient>
<linearGradient id="paint1_linear_4170_8251" x1="38.5517" y1="0" x2="38.5517" y2="52.7071" gradientUnits="userSpaceOnUse">
<stop offset="0.0865385" stop-color="#F77A1A"/>
<stop offset="0.721154" stop-color="#F7911A"/>
</linearGradient>
<clipPath id="clip0_4170_8251">
<rect width="376.8" height="72" fill="white"/>
</clipPath>
</defs>
</svg>
